<?xml version="1.0" encoding="UTF-8"?>
<svg xmlns="http://www.w3.org/2000/svg" width="680" height="760" viewBox="0 0 680 760" font-family="Arial, sans-serif">
<defs>
<marker id="arrow" viewBox="0 0 10 10" refX="8" refY="5" markerWidth="6" markerHeight="6" orient="auto-start-reverse">
  <path d="M2 1L8 5L2 9" fill="none" stroke="#444" stroke-width="1.5" stroke-linecap="round" stroke-linejoin="round"/>
</marker>
<style>
  .title { font-size: 16px; font-weight: 500; fill: #1a1a1a; }
  .stage-title { font-size: 14px; font-weight: 500; fill: #1a1a1a; }
  .box-title { font-size: 13px; font-weight: 500; fill: #1a1a1a; }
  .box-sub { font-size: 11px; font-weight: 400; fill: #444; }
  .stage-bg { fill: #E6F1FB; stroke: #185FA5; }
  .data-box { fill: #E1F5EE; stroke: #0F6E56; }
  .data-text { fill: #04342C; }
  .resid-box { fill: #EEEDFE; stroke: #534AB7; }
  .resid-text { fill: #26215C; }
  .model-box { fill: #FAECE7; stroke: #993C1D; }
  .model-text { fill: #4A1B0C; }
  .ckpt-box { fill: #FBEAF0; stroke: #993556; }
  .ckpt-text { fill: #4B1528; }
  .eval-box { fill: #FAEEDA; stroke: #854F0B; }
  .eval-text { fill: #412402; }
  .out-box { fill: #EAF3DE; stroke: #3B6D11; }
  .out-text { fill: #173404; }
  .arr { stroke: #444; stroke-width: 1.5; fill: none; }
</style>
</defs>

<text x="340" y="28" text-anchor="middle" class="title">DERGuardian Phase 1 — Hardened Methodology</text>

<!-- Stage 1: Data generation -->
<rect x="40" y="50" width="600" height="120" rx="14" class="stage-bg" stroke-width="0.5"/>
<text x="60" y="74" class="stage-title">Stage 1 — Physics-grounded data generation</text>
<rect x="60" y="92" width="170" height="64" rx="8" class="data-box" stroke-width="0.5"/>
<text x="145" y="115" text-anchor="middle" class="box-title data-text">OpenDSS simulation</text>
<text x="145" y="135" text-anchor="middle" class="box-sub data-text">IEEE 123-bus + DER</text>
<rect x="255" y="92" width="170" height="64" rx="8" class="data-box" stroke-width="0.5"/>
<text x="340" y="115" text-anchor="middle" class="box-title data-text">Clean telemetry</text>
<text x="340" y="135" text-anchor="middle" class="box-sub data-text">Truth, measured, cyber</text>
<rect x="450" y="92" width="170" height="64" rx="8" class="data-box" stroke-width="0.5"/>
<text x="535" y="115" text-anchor="middle" class="box-title data-text">Constraint-aware</text>
<text x="535" y="135" text-anchor="middle" class="box-sub data-text">Attack scenarios</text>
<line x1="230" y1="124" x2="253" y2="124" class="arr" marker-end="url(#arrow)"/>
<line x1="425" y1="124" x2="448" y2="124" class="arr" marker-end="url(#arrow)"/>

<line x1="340" y1="170" x2="340" y2="195" class="arr" marker-end="url(#arrow)"/>

<!-- Stage 2: Residual construction -->
<rect x="40" y="200" width="600" height="100" rx="14" class="stage-bg" stroke-width="0.5"/>
<text x="60" y="224" class="stage-title">Stage 2 — Residual window construction</text>
<rect x="60" y="242" width="170" height="46" rx="8" class="resid-box" stroke-width="0.5"/>
<text x="145" y="266" text-anchor="middle" class="box-sub resid-text">60 s non-overlap</text>
<rect x="255" y="242" width="170" height="46" rx="8" class="resid-box" stroke-width="0.5"/>
<text x="340" y="266" text-anchor="middle" class="box-sub resid-text">mean, std, min, max, last</text>
<rect x="450" y="242" width="170" height="46" rx="8" class="resid-box" stroke-width="0.5"/>
<text x="535" y="266" text-anchor="middle" class="box-sub resid-text">Δ = attacked − clean</text>

<line x1="340" y1="300" x2="340" y2="325" class="arr" marker-end="url(#arrow)"/>

<!-- Stage 3: 11-model benchmark -->
<rect x="40" y="330" width="600" height="160" rx="14" class="stage-bg" stroke-width="0.5"/>
<text x="60" y="354" class="stage-title">Stage 3 — 11-model detector benchmark</text>
<rect x="60" y="372" width="110" height="46" rx="8" class="model-box" stroke-width="0.5"/>
<text x="115" y="392" text-anchor="middle" class="box-sub model-text">Statistical</text>
<text x="115" y="408" text-anchor="middle" class="box-sub model-text">Thr · IF · OCSVM</text>
<rect x="180" y="372" width="110" height="46" rx="8" class="model-box" stroke-width="0.5"/>
<text x="235" y="392" text-anchor="middle" class="box-sub model-text">Reconstruction</text>
<text x="235" y="408" text-anchor="middle" class="box-sub model-text">AE · VAE · LSTM-AE</text>
<rect x="300" y="372" width="100" height="46" rx="8" class="model-box" stroke-width="0.5"/>
<text x="350" y="392" text-anchor="middle" class="box-sub model-text">Sequence</text>
<text x="350" y="408" text-anchor="middle" class="box-sub model-text">GRU · LSTM</text>
<rect x="410" y="372" width="120" height="46" rx="8" class="model-box" stroke-width="0.5"/>
<text x="470" y="392" text-anchor="middle" class="box-sub model-text">Attention</text>
<text x="470" y="408" text-anchor="middle" class="box-sub model-text">Transformer · AT</text>
<rect x="540" y="372" width="80" height="46" rx="8" class="model-box" stroke-width="0.5"/>
<text x="580" y="392" text-anchor="middle" class="box-sub model-text">Tokenized</text>
<text x="580" y="408" text-anchor="middle" class="box-sub model-text">LLM-base</text>

<rect x="60" y="430" width="560" height="46" rx="8" class="ckpt-box" stroke-width="0.5"/>
<text x="340" y="450" text-anchor="middle" class="box-sub ckpt-text">Auto-checkpointing — best.pt, latest.pt, training_history.jsonl, resume support</text>
<text x="340" y="466" text-anchor="middle" class="box-sub ckpt-text">99th-percentile threshold calibration on validation benign scores</text>

<line x1="340" y1="490" x2="340" y2="515" class="arr" marker-end="url(#arrow)"/>

<!-- Stage 4: Hardened evaluation -->
<rect x="40" y="520" width="600" height="160" rx="14" class="stage-bg" stroke-width="0.5"/>
<text x="60" y="544" class="stage-title">Stage 4 — Hardened evaluation protocol</text>
<rect x="60" y="562" width="170" height="50" rx="8" class="eval-box" stroke-width="0.5"/>
<text x="145" y="582" text-anchor="middle" class="box-title eval-text">Multi-seed</text>
<text x="145" y="600" text-anchor="middle" class="box-sub eval-text">5 seeds, 95% CI, t-test</text>
<rect x="255" y="562" width="170" height="50" rx="8" class="eval-box" stroke-width="0.5"/>
<text x="340" y="582" text-anchor="middle" class="box-title eval-text">Leave-one-family-out</text>
<text x="340" y="600" text-anchor="middle" class="box-sub eval-text">6 families × 11 models</text>
<rect x="450" y="562" width="170" height="50" rx="8" class="eval-box" stroke-width="0.5"/>
<text x="535" y="582" text-anchor="middle" class="box-title eval-text">Ablations</text>
<text x="535" y="600" text-anchor="middle" class="box-sub eval-text">window · feat · seq · τ</text>

<rect x="60" y="624" width="270" height="44" rx="8" class="eval-box" stroke-width="0.5"/>
<text x="195" y="644" text-anchor="middle" class="box-sub eval-text">Per-family precision · recall · F1</text>
<text x="195" y="660" text-anchor="middle" class="box-sub eval-text">+ confusion matrices, ROC, PR</text>
<rect x="350" y="624" width="270" height="44" rx="8" class="eval-box" stroke-width="0.5"/>
<text x="485" y="644" text-anchor="middle" class="box-sub eval-text">Reproducibility manifest</text>
<text x="485" y="660" text-anchor="middle" class="box-sub eval-text">SHA-256 hashes, git commit, env</text>

<line x1="340" y1="680" x2="340" y2="705" class="arr" marker-end="url(#arrow)"/>

<!-- Output -->
<rect x="40" y="710" width="600" height="40" rx="8" class="out-box" stroke-width="0.5"/>
<text x="340" y="735" text-anchor="middle" class="box-title out-text">paper_numbers.md — single source of truth → Explanation module (Phase 3)</text>
</svg>
